<svg xmlns="http://www.w3.org/2000/svg" width="1200" height="630" viewBox="0 0 1200 630" font-family="'Iowan Old Style', Palatino, P052, Georgia, serif">
<defs><clipPath id="pcS"><rect x="0" y="0" width="100" height="72"/></clipPath></defs>
<rect width="1200" height="630" fill="#f4ece1"/>
<!-- attribution -->
<circle cx="108" cy="112" r="44" fill="{{AVATAR_TINT}}"/>
<circle cx="108" cy="112" r="44" fill="none" stroke="#00000014" stroke-width="2"/>
<text x="108" y="126" text-anchor="middle" font-size="40" font-weight="700" fill="#fbf6ee">{{INITIAL}}</text>
<text x="172" y="90" font-size="14" letter-spacing="3" fill="#c8734b">SHARED A TRAIL ON FORAGER</text>
<text x="172" y="120" font-size="30" font-weight="700" fill="#3d352b">{{DISPLAY_NAME}}</text>
<text x="172" y="150" font-size="21" fill="#a99d8b">{{HANDLE}}</text>
<line x1="64" y1="188" x2="1136" y2="188" stroke="#e4d8c6" stroke-width="2"/>
<!-- hero: trail title -->
<text x="64" y="286" font-size="66" font-weight="700" fill="#3d352b">{{TRAIL_TITLE}}</text>
<text x="64" y="336" font-size="26" fill="#6f6455">{{TRAIL_SUBTITLE}}</text>
<!-- trail spine with nodes -->
<rect x="64" y="478" width="878" height="16" rx="8" fill="#e4d8c6"/>
<circle cx="150" cy="486" r="13" fill="#c8734b"/>
<circle cx="290" cy="486" r="10" fill="#cdbfa6"/>
<circle cx="420" cy="486" r="13" fill="#8a9a6f"/>
<circle cx="560" cy="486" r="10" fill="#cdbfa6"/>
<circle cx="700" cy="486" r="13" fill="{{AVATAR_TINT}}"/>
<circle cx="830" cy="486" r="10" fill="#cdbfa6"/>
<g transform="translate(930,342.0) scale(2.0)"><g clip-path="url(#pcS)">
<circle cx="30" cy="34" r="12" fill="#c8734b"/><circle cx="70" cy="34" r="12" fill="#c8734b"/>
<circle cx="30" cy="34" r="5.5" fill="#b3603c"/><circle cx="70" cy="34" r="5.5" fill="#b3603c"/>
<ellipse cx="50" cy="58" rx="30" ry="28" fill="#c8734b"/><ellipse cx="50" cy="66" rx="15" ry="11" fill="#fbf6ee"/>
<ellipse cx="50" cy="62" rx="6" ry="4.4" fill="#3d352b"/>
<circle cx="39" cy="54" r="3" fill="#3d352b"/><circle cx="61" cy="54" r="3" fill="#3d352b"/></g>
<rect x="6" y="72" width="88" height="7" rx="3.5" fill="#e4d8c6"/>
<ellipse cx="30" cy="72" rx="8" ry="6" fill="#c8734b"/><ellipse cx="70" cy="72" rx="8" ry="6" fill="#c8734b"/>
<path d="M84 30 q3 -7 9 -8" stroke="#8a9a6f" stroke-width="3" fill="none" stroke-linecap="round"/>
<circle cx="84" cy="31" r="5" fill="#d99a5b"/></g>
<!-- footer brand -->
<text x="64" y="596" font-size="26" font-weight="700" fill="#c8734b">Forager<tspan font-weight="400" font-size="21" fill="#a99d8b">  ·  a Semble client  ·  forager.link</tspan></text>
</svg>